<?xml version="1.0" encoding="UTF-8" standalone="no"?>
<svg width="64px" height="64px" viewBox="0 0 64 64" version="1.1" xmlns="http://www.w3.org/2000/svg" xmlns:xlink="http://www.w3.org/1999/xlink">
    <!-- Generator: Sketch 46.1 (44463) - http://www.bohemiancoding.com/sketch -->
    <title>language-icon/ruby</title>
    <desc>Created with Sketch.</desc>
    <defs>
        <rect id="path-1" x="0" y="0" width="64" height="64"></rect>
    </defs>
    <g id="Symbols" stroke="none" stroke-width="1" fill="none" fill-rule="evenodd">
        <g id="language-icon/ruby">
            <mask id="mask-2" fill="white">
                <use xlink:href="#path-1"></use>
            </mask>
            <use id="Rectangle" fill="#D43331" xlink:href="#path-1"></use>
            <path d="M55.6346947,14.5616421 C54.8624,11.5675789 52.8949053,9.77818947 49.9969684,8.91911579 C49.4824842,8.76564211 48.9551158,8.63907368 48.4243368,8.56404211 C48.0834105,8.51477895 47.7248,8.57692632 47.3744,8.59688421 C45.5954947,8.70109474 43.8178526,8.80896842 42.0402105,8.91444211 C40.1680374,9.02677295 38.2958267,9.13847822 36.4235789,9.24955789 C36.4013474,9.25082105 36.3802526,9.26016842 36.3087579,9.27772632 C36.4002105,9.34341053 36.4622316,9.39027368 36.5267789,9.436 C37.9834526,10.4613053 39.4388632,11.4890105 40.9002105,12.5085053 C41.0583579,12.6199158 41.1005474,12.7112421 41.0372632,12.9058947 C39.7775158,16.8666526 38.5259789,20.8310737 37.2662316,24.7930947 C37.2287158,24.9125895 37.1502737,25.0332211 37.0576842,25.1188632 C32.5985699,29.2653564 28.1349884,33.407043 23.6669474,37.5439158 C23.5321684,37.6680842 23.3423158,37.7630737 23.1642105,37.8041263 C19.2818947,38.6772211 15.3983158,39.5408421 11.516,40.4068632 C11.4409684,40.4231579 11.3648,40.4325053 11.2710737,40.4490526 C10.5844211,38.5376421 9.90004211,36.6381053 9.21806316,34.7385684 L9.18054737,34.7385684 C9.13482105,35.1802947 9.08568421,35.6208842 9.04223158,36.0627368 C8.90432144,37.430154 8.7676056,38.7976914 8.63208421,40.1653474 C8.50084211,41.4943158 8.37073684,42.8231579 8.23949474,44.1521263 C8.17507368,44.8130105 8.11052632,45.4727579 8.04383158,46.1337684 C8.04029474,46.1701474 8.01566316,46.2041263 8.00050526,46.2405053 L8.00050526,46.8029895 C8.04976842,47.2365053 8.09195789,47.6700211 8.14930526,48.1012632 C8.3192,49.3949895 8.64850526,50.6407158 9.27667368,51.7937263 C10.4133895,53.8797053 12.2109895,55.0713684 14.4925053,55.5542737 C15.3491789,55.7359158 16.2362947,55.7863158 17.1092632,55.8964632 C17.2311579,55.9128842 17.3530526,55.9315789 17.4749474,55.9492632 L18.0374316,55.9492632 C18.3152,55.9188211 18.5928421,55.8800421 18.8717474,55.8613474 C20.3846316,55.7582737 21.8975158,55.6644211 23.4091368,55.5626105 C25.1387789,55.4453895 26.8684211,55.3212211 28.5992,55.2051368 C30.1109474,55.1020632 31.6249684,55.0082105 33.1365895,54.9064 C34.8674947,54.7891789 36.5971368,54.6661474 38.3266526,54.5489263 C39.8395368,54.4469895 41.3511579,54.352 42.8640421,54.2501895 C44.5949474,54.1341053 46.3245895,54.0110737 48.0553684,53.8928421 C49.3256,53.8072 50.5958316,53.7263579 51.8673263,53.6419789 C52.3336842,53.6104 52.8001684,53.5752842 53.2805474,53.5413053 C53.3192,53.0725474 53.3567158,52.6155368 53.3930947,52.1572632 C53.5138526,50.5846316 53.6368842,49.0108632 53.7563789,47.4382316 C53.8560421,46.1211368 53.9531789,44.8050526 54.0539789,43.4890947 C54.1560421,42.1649263 54.2615158,40.8406316 54.3645895,39.5177263 C54.4489684,38.4185263 54.5309474,37.3204632 54.6153263,36.2225263 C54.7172632,34.8830737 54.8227368,33.5436211 54.9258105,32.2041684 C55.0101895,31.1130526 55.0921684,30.0233263 55.1754105,28.9323368 C55.2797474,27.5777263 55.3863579,26.2218526 55.4894316,24.8671158 C55.5902316,23.5582316 55.6874947,22.2503579 55.7870316,20.9414737 C55.8596632,20.0063579 55.9804211,19.0723789 55.9968421,18.1372632 C56.0179368,16.9358737 55.9382316,15.7382737 55.6346947,14.5616421 L55.6346947,14.5616421 Z M10.1152842,50.6582737 C10.100557,50.6620058 10.085681,50.6651243 10.0706947,50.6676211 C10.0367158,50.5949895 9.99692632,50.5223579 9.96762105,50.4473263 C9.46374737,49.1769684 9.25166316,47.8493895 9.21288421,46.4912421 C9.20934737,46.3529263 9.22690526,46.2064 9.27263158,46.0775579 C9.73431579,44.7931789 10.2054737,43.5123368 10.6729684,42.2316211 C10.6882526,42.1894316 10.7104842,42.1506526 10.7726316,42.1190737 L10.1152842,50.6582737 L10.1152842,50.6582737 Z M17.9351158,54.7 C17.9151579,54.7046737 17.8940632,54.7093474 17.8729684,54.7151579 C15.7578105,50.3629474 13.6426526,46.0107368 11.5086737,41.6221474 C15.3546105,40.7654737 19.1678316,39.9158737 23.0325895,39.0546526 C21.3337524,44.2698729 19.6345945,49.4849887 17.9351158,54.7 L17.9351158,54.7 Z M31.1429474,51.6965895 C28.8074947,47.4263579 26.4849263,43.1760842 24.1235789,38.8588632 C29.9078316,40.5768842 35.6252632,42.2736842 41.4014316,43.9893053 C38.2128421,46.9188211 34.8952842,49.5790316 31.1429474,51.6965895 L31.1429474,51.6965895 Z M42.4713263,42.9627368 C41.0604606,37.1997523 39.6487554,31.4369732 38.2362105,25.6744 C38.2561684,25.6603789 38.2748632,25.6462316 38.2936842,25.6322105 C42.3318737,28.1399579 46.3700632,30.6464421 50.4059789,33.1519158 C49.7402947,34.6202105 43.9689263,41.7592 42.4713263,42.9627368 L42.4713263,42.9627368 Z M52.2597895,52.5953263 C49.2386947,49.7782316 46.2165895,46.9622737 43.1732632,44.1252211 C44.7940211,42.6674105 46.2763368,41.1252211 47.6415579,39.4717474 C49.0056421,37.8194105 50.2336842,36.0733474 51.2238737,34.1643368 C51.2449684,34.1677474 51.2649263,34.1714105 51.2860211,34.1749474 L52.3090526,52.5565474 L52.2597895,52.5953263 L52.2597895,52.5953263 Z M54.3421053,23.9141895 C49.0488421,24.2457684 43.7884211,24.5762105 38.4822737,24.9090526 C39.6951579,21.0795368 40.8975579,17.2838737 42.1091789,13.4566316 C42.1959579,13.5210526 42.2650526,13.5679158 42.3283368,13.6194526 C46.2880842,16.8632421 50.2454316,20.1091789 54.2108632,23.3458947 C54.4264842,23.5217263 54.3386947,23.6973053 54.3421053,23.9141895 Z M42.7595789,12.1746526 C42.7584421,12.1535579 42.7560421,12.1336 42.7549053,12.1125053 C42.8439579,12.0727158 42.9318737,12.0316632 43.0209263,11.9941474 C44.7236632,11.2746526 46.4262737,10.5527579 48.1325474,9.84261053 C48.2661895,9.7864 48.4360842,9.76757895 48.5778105,9.79461053 C50.0555789,10.0759158 51.4359579,10.5797895 52.5831579,11.5968842 C53.4467789,12.3622316 54.0139368,13.3149053 54.3620632,14.4622316 C50.4704,13.6944842 46.6149895,12.9340632 42.7595789,12.1746526 Z" id="Shape" fill="#FFFFFF" fill-rule="nonzero" mask="url(#mask-2)"></path>
            <path d="M9.96054737,32.9726737 C10.0191579,31.3696 10.4363789,29.8554526 11.0339789,28.3848842 C12.0499368,25.8818105 13.4855158,23.6270737 15.1765053,21.5342737 C18.2773053,17.7010947 21.9451368,14.5313263 26.2657684,12.136 C27.8957474,11.2325895 29.5997474,10.5013474 31.4313263,10.1074947 C32.5551579,9.86610526 33.6883368,9.76290526 34.8237895,10.0290526 C36.5874105,10.4426105 37.6069053,11.5898105 37.9584421,13.336 C38.2397474,14.7329263 38.0112421,16.1039579 37.6115789,17.4492211 C36.9484211,19.6792 35.8597053,21.7041684 34.5378105,23.6025684 C31.0585684,28.6016421 26.6688421,32.6117895 21.3533474,35.5929684 C19.7958737,36.4660632 18.1576842,37.1586526 16.4034105,37.5346947 C15.3792421,37.7538526 14.3467368,37.8499789 13.3109474,37.6284211 C11.6024,37.264 10.4399158,36.0581895 10.1223579,34.3192 C10.0415158,33.8762105 10.0122105,33.4227368 9.96054737,32.9726737 L9.96054737,32.9726737 Z" id="Shape" fill="#FFFFFF" fill-rule="nonzero" mask="url(#mask-2)"></path>
        </g>
    </g>
</svg>